<?xml version="1.0" encoding="utf-8"?>
<!-- Generator: Adobe Illustrator 26.3.1, SVG Export Plug-In . SVG Version: 6.00 Build 0)  -->
<svg version="1.1" id="レイヤー_1" xmlns="http://www.w3.org/2000/svg" xmlns:xlink="http://www.w3.org/1999/xlink" x="0px"
	 y="0px" viewBox="0 0 113.4 113.4" style="enable-background:new 0 0 113.4 113.4;" xml:space="preserve">
<style type="text/css">
	.st0{fill:#41988C;}
	.st1{fill:#040000;}
</style>
<g>
	<path class="st0" d="M103.7,95.9c-1.1-1.9-3.9-3.1-6.6-3.9c0-2.5,0-9.2-1.9-12.6c0,0-0.7,5.4-5,11.2c-3.2-0.2-6.6-0.8-10-1.6
		c0.2-2.5,0.2-7.4-1-10.1c0,0-0.8,4.2-4.3,8.8c-11.7-3.3-21.7-8.1-21.7-8.1c-5.9-2.7-8.1-5-11-6.7c3.4-1.3,8.5-5,17.4-14.8
		c4.6,3,7.6,6.2,7.6,6.2c0.1-3.1-2.1-7.8-3.3-10.3c0.1-0.1,0.2-0.2,0.3-0.3c2.9-3.8,5.8-6.9,8.4-9.4c5.3,4.1,7.6,8.4,7.6,8.4
		c0.6-3.9-1.8-10.6-2.6-12.8c4.3-3.4,7.2-4.8,7.2-4.8c0.7-0.5,1.5-0.9,2.3-1.2c5.9,5.2,8.1,10.7,8.1,10.7c1-4-0.5-10.8-1.3-13.7
		c2-1,3.5-2,3.8-3.3c3-14.1-9.6-9.7-9.6-9.7c-2.8,1.1-3.9,2.2-7.9,4.8c-4.7,3.4-9,6.1-13,8.6c-16,10-20.9,12.9-27.2,17.2
		c-1.1,0.7-2.2,1.4-3.4,2c0.5,0.9,0.9,1.9,0.9,3c0,3.1-2.5,5.6-5.6,5.6c-2.6,0-4.8-1.8-5.5-4.2c-0.8,0.2-1.6,0.5-2.3,0.7
		c-11.3,2.7-15.5,15.4-15.3,21c0.3,6.9,4.1,13.2,9.6,16c0,0,0,0,0,0c0.1,0.1,0.2,0.2,0.4,0.2c3.6,1.9,9.6,3.4,19.3,4
		c0.2,0,25.2,0.3,51.1,6.6c1.7,0.4,4.4,0.9,7.1,0.9c3.3,0,6.5-0.8,7.7-3.6C104.7,99.7,104.9,97.8,103.7,95.9z"/>
</g>
<g>
	<path class="st1" d="M21.2,8.8v95.7h21.4V8.8H21.2z M31.9,59.1c-3.1,0-5.6-2.5-5.6-5.6s2.5-5.6,5.6-5.6s5.6,2.5,5.6,5.6
		S35,59.1,31.9,59.1z"/>
</g>
</svg>
