<?xml version="1.0" encoding="utf-8"?>
<!-- Generator: Adobe Illustrator 25.2.1, SVG Export Plug-In . SVG Version: 6.00 Build 0)  -->
<svg version="1.1" id="レイヤー_1" xmlns="http://www.w3.org/2000/svg" xmlns:xlink="http://www.w3.org/1999/xlink" x="0px"
	 y="0px" viewBox="0 0 310 307" style="enable-background:new 0 0 310 307;" xml:space="preserve">
<style type="text/css">
	.st0{fill:#419E91;}
</style>
<g>
	<path class="st0" d="M304.2,279.2c-3.6-6-12.4-10-21-12.6c0.1-8.1-0.1-29.3-5.9-40.2c0,0-2.3,17.2-15.9,35.9
		c-10.3-0.8-21.1-2.6-31.8-5.1c0.5-8.1,0.7-23.8-3.3-32.4c0,0-2.6,13.3-13.7,28.1c-37.2-10.5-69.3-25.8-69.3-25.8
		c-18.9-8.7-25.7-15.9-35-21.3c10.7-4.1,27.1-16,55.5-47.2c14.6,9.5,24.3,19.8,24.3,19.8c0.2-10-6.6-25-10.5-32.8
		c0.3-0.4,0.6-0.7,0.9-1.1c9.4-12.2,18.5-22.1,26.9-30.1c17,13,24.1,26.8,24.1,26.8c1.9-12.6-5.8-34-8.4-40.8
		c13.8-11,23-15.4,23-15.4c2.4-1.5,4.9-2.8,7.4-4c18.9,16.7,25.7,34.1,25.7,34.1c3.3-12.7-1.6-34.5-4-43.7c6.4-3.1,11.1-6.3,12-10.6
		c9.5-45-30.8-30.9-30.8-30.9c-9,3.4-12.6,6.9-25.3,15.4c-14.9,11-28.6,19.4-41.5,27.4c-51,31.9-66.7,41.2-86.7,55
		c-3.5,2.3-7.1,4.5-10.7,6.4c1.7,2.8,2.8,6,2.8,9.6c0,9.9-8.1,18-18,18c-8.3,0-15.3-5.7-17.4-13.3c-2.7,0.8-5.1,1.6-7.4,2.3
		C14.1,159.5,0.6,200,1.3,217.9C2.2,240,14.5,260,32,269c0,0,0.1,0,0.1,0.1c0.4,0.2,0.8,0.5,1.3,0.7c11.6,6.1,30.5,10.8,61.5,12.7
		c0.8,0,80.3,1.1,163.2,21.2c5.3,1.3,14,3,22.6,3c10.4,0,20.6-2.5,24.7-11.4C307.2,291.5,307.9,285.3,304.2,279.2z"/>
</g>
<g>
	<path d="M40.8,1v306h68.3V1H40.8z M75,161.6c-9.9,0-18-8.1-18-18s8.1-18,18-18s18,8.1,18,18S84.9,161.6,75,161.6z"/>
</g>
</svg>
