<?xml version="1.0" encoding="utf-8"?>
<!-- Generator: Adobe Illustrator 25.1.0, SVG Export Plug-In . SVG Version: 6.00 Build 0)  -->
<svg version="1.1" id="レイヤー_1" xmlns="http://www.w3.org/2000/svg" xmlns:xlink="http://www.w3.org/1999/xlink" x="0px"
	 y="0px" viewBox="0 0 292 349" style="enable-background:new 0 0 292 349;" xml:space="preserve">
<style type="text/css">
	.st0{fill:#419E91;}
</style>
<g>
	<path d="M1.3,229.1h8v29.5l11.1-29.5h8.6l-12.2,29.5l12.9,29.5h-9.2L9.2,259.2v28.9h-8V229.1z"/>
	<path d="M48.5,268.4c0-7.6,1.1-12.9,3.4-15.8c2.3-2.9,5.2-4.4,8.9-4.4c0.2,0,0.4,0,0.5,0c0.2,0,0.3,0,0.5-0.1
		c3.9,0,6.9,1.7,8.9,5.1c2,3.4,3,8.5,3,15.3c0,6.5-1,11.4-3,14.9c-2,3.5-5.3,5.3-9.9,5.3c-4.3,0-7.4-1.8-9.4-5.3
		C49.5,280,48.5,275,48.5,268.4L48.5,268.4z M55.9,268.4c0,3.7,0.4,6.9,1.1,9.6c0.7,2.7,2,4,3.8,4c2.1,0,3.5-1.3,4.1-3.8
		c0.6-2.5,0.9-5.8,0.9-9.7c0-3.7-0.2-6.9-0.6-9.5c-0.4-2.7-1.8-4-4.3-4c-1.8,0-3.1,1.1-3.8,3.3C56.3,260.5,55.9,263.9,55.9,268.4
		L55.9,268.4z"/>
	<path d="M94.6,248.8h7.4v5.5c0.8-1.7,1.8-3.1,3-4s2.5-1.6,3.9-1.8c0.2,0,0.4,0,0.6,0c0.2,0,0.4,0,0.6,0c1.7,0,3.1,0.5,4.4,1.6
		s2,2.5,2.2,4.4c0.8-1.8,2-3.2,3.4-4.3s2.9-1.6,4.4-1.8c0.1-0.1,0.2-0.1,0.4-0.1s0.3,0,0.5,0c2.1,0,3.9,0.8,5.5,2.4
		c1.6,1.6,2.4,4.1,2.4,7.3v30h-6.7V258c0-1-0.4-1.8-1.3-2.4s-1.8-0.9-2.9-0.9c-1.1,0-2.1,0.3-3,0.9c-0.9,0.6-1.4,1.6-1.4,3v29.4
		h-7.4V258c0-1-0.4-1.8-1.3-2.4s-1.8-0.9-2.9-0.9c-1.1,0-2.1,0.3-3,0.9c-0.9,0.6-1.4,1.6-1.4,3v29.4h-7.4V248.8z"/>
	<path d="M167.1,249.4c1.4-1.1,2.8-1.7,4.4-1.7c0.2,0,0.3,0,0.4,0s0.3,0,0.4,0.1c2.2,0.3,4.3,2,6.2,5.1s2.8,8.1,2.8,15.1
		c0,7.3-0.9,12.5-2.8,15.5c-1.8,3.1-3.9,4.8-6.1,5.1c-0.2,0.1-0.3,0.1-0.5,0.1s-0.3,0-0.5,0c-1.6,0-3.1-0.5-4.4-1.6
		c-1.4-1-2.3-2.3-2.8-3.7v20.2h-7.4v-54.7h7.4v4.9C164.7,251.9,165.7,250.5,167.1,249.4z M168.4,254.3c-2.1,0-3.5,1.4-4.1,3.9
		c-0.6,2.5-0.9,6-0.9,10.3c0,0.4,0,0.8,0,1.3c0,0.4,0,0.9,0.1,1.3c0,2.8,0.4,5.3,1.1,7.5s1.9,3.4,3.8,3.4c1.6,0,2.8-1,3.7-3
		c0.9-2,1.3-4.6,1.4-8c0-0.5,0-1.1,0-1.6c0-0.5-0.1-1.1-0.1-1.6c0-0.1,0-0.1,0-0.1c0,0,0-0.1,0-0.1c0-3.3-0.4-6.4-1.1-9.1
		C171.5,255.8,170.2,254.4,168.4,254.3L168.4,254.3z"/>
	<path d="M199.8,236.5c0-1.5,0.5-2.6,1.6-3.4c1.1-0.8,2.2-1.3,3.5-1.3c0.1,0,0.1,0,0.1,0c0,0,0.1,0,0.1,0c1.3,0,2.5,0.4,3.5,1.2
		c1,0.8,1.6,2,1.6,3.7c0,1.7-0.5,2.9-1.6,3.7c-1.1,0.8-2.3,1.2-3.6,1.2c-1.3,0.1-2.5-0.3-3.6-1.2
		C200.3,239.6,199.8,238.3,199.8,236.5L199.8,236.5z M201.6,248.8h8v39.3h-8V248.8z"/>
	<path d="M232.3,248.8h7.4v4.9c1.2-1.8,2.5-3.1,3.9-4.1c1.4-0.9,3.2-1.4,5.3-1.4v6.7c-3.7,0.1-6.1,0.8-7.4,2.4
		c-1.2,1.5-1.8,3.2-1.8,5v25.7h-7.4V248.8z"/>
	<path d="M282,287.3c-1.4,1.2-2.8,1.8-4.3,1.8c-0.1,0-0.2,0-0.3,0c-0.1,0-0.2,0-0.3,0c-2-0.2-3.8-1.7-5.5-4.4s-2.7-7.3-3-13.6
		c-0.1-0.5-0.1-1-0.1-1.5s0-0.9,0-1.4c0-7,0.9-12,2.7-15c1.8-3,3.8-4.7,5.9-4.9c0.2-0.1,0.3-0.1,0.4-0.1c0.1,0,0.3,0,0.4,0
		c1.5,0,2.9,0.5,4.3,1.6c1.4,1,2.3,2.4,2.9,4.1v-5h7.4v39.3h-7.4v-5.5C284.4,284.5,283.3,286.1,282,287.3z M280.9,255
		c-2.1,0.1-3.5,1.4-4.1,3.9c-0.6,2.5-0.9,6-0.9,10.3c0,0.4,0,0.8,0,1.3c0,0.4,0,0.9,0,1.3c0,2.8,0.4,5.3,0.9,7.5
		c0.5,2.3,1.9,3.4,4,3.4c0.2,0,0.4,0,0.6-0.1c0.2-0.1,0.4-0.2,0.6-0.4c0.9-0.6,1.8-1.9,2.6-3.9c0.8-2,1.2-4.5,1.2-7.5
		c0-0.2,0-0.4,0-0.6s0-0.4,0-0.6c0-0.2,0-0.3,0-0.5s0-0.4,0-0.6c0-3.4-0.3-6.5-0.9-9.3S283,255,280.9,255L280.9,255z"/>
</g>
<g>
	<path class="st0" d="M246.7,186.7c-2.4-4-8.3-6.7-14-8.4c0.1-5.4-0.1-19.5-3.9-26.8c0,0-1.5,11.4-10.6,23.9
		c-6.9-0.5-14.1-1.7-21.2-3.4c0.3-5.4,0.5-15.8-2.2-21.6c0,0-1.7,8.9-9.2,18.7c-24.8-7-46.2-17.2-46.2-17.2
		c-12.6-5.8-17.2-10.6-23.4-14.2c7.1-2.8,18.1-10.7,37-31.5c9.7,6.3,16.2,13.2,16.2,13.2c0.2-6.6-4.4-16.7-7-21.8
		c0.2-0.3,0.4-0.5,0.6-0.7c6.3-8.1,12.3-14.7,17.9-20.1c11.3,8.6,16.1,17.9,16.1,17.9c1.2-8.4-3.9-22.7-5.6-27.2
		c9.2-7.4,15.4-10.4,15.4-10.4c1.6-1,3.2-1.8,4.9-2.7c12.6,11.1,17.1,22.7,17.1,22.7c2.2-8.5-1.1-23-2.6-29.2c4.3-2.1,7.4-4.2,8-7.1
		c6.3-30-20.6-20.6-20.6-20.6c-6,2.3-8.4,4.6-16.8,10.3c-9.9,7.3-19.1,12.9-27.7,18.3c-34,21.3-44.5,27.4-57.8,36.7
		c-2.3,1.5-4.7,3-7.1,4.3c1.2,1.8,1.8,4,1.8,6.4c0,6.6-5.4,12-12,12c-5.6,0-10.2-3.8-11.6-8.9c-1.8,0.5-3.4,1-5,1.5
		c-24.1,5.9-33.1,32.9-32.6,44.8c0.6,14.7,8.8,28,20.5,34.1c0,0,0.1,0,0.1,0c0.3,0.1,0.6,0.3,0.8,0.4c7.7,4.1,20.3,7.2,41,8.5
		c0.5,0,53.6,0.8,108.8,14.1c3.5,0.9,9.3,2,15,2c6.9,0,13.7-1.7,16.5-7.6C248.8,194.8,249.2,190.7,246.7,186.7z"/>
</g>
<g>
	<path d="M71.2,1.2v204h45.5V1.2H71.2z M93.9,108.2c-6.6,0-12-5.4-12-12c0-6.6,5.4-12,12-12c6.6,0,12,5.4,12,12
		C105.9,102.9,100.6,108.2,93.9,108.2z"/>
</g>
<g>
	<path d="M1.3,229.1h8v29.5l11.1-29.5h8.6l-12.2,29.5l12.9,29.5h-9.2L9.2,259.2v28.9h-8V229.1z"/>
	<path d="M48.5,268.4c0-7.6,1.1-12.9,3.4-15.8c2.3-2.9,5.2-4.4,8.9-4.4c0.2,0,0.4,0,0.5,0c0.2,0,0.3,0,0.5-0.1
		c3.9,0,6.9,1.7,8.9,5.1c2,3.4,3,8.5,3,15.3c0,6.5-1,11.4-3,14.9c-2,3.5-5.3,5.3-9.9,5.3c-4.3,0-7.4-1.8-9.4-5.3
		C49.5,280,48.5,275,48.5,268.4L48.5,268.4z M55.9,268.4c0,3.7,0.4,6.9,1.1,9.6c0.7,2.7,2,4,3.8,4c2.1,0,3.5-1.3,4.1-3.8
		c0.6-2.5,0.9-5.8,0.9-9.7c0-3.7-0.2-6.9-0.6-9.5c-0.4-2.7-1.8-4-4.3-4c-1.8,0-3.1,1.1-3.8,3.3C56.3,260.5,55.9,263.9,55.9,268.4
		L55.9,268.4z"/>
	<path d="M94.6,248.8h7.4v5.5c0.8-1.7,1.8-3.1,3-4s2.5-1.6,3.9-1.8c0.2,0,0.4,0,0.6,0c0.2,0,0.4,0,0.6,0c1.7,0,3.1,0.5,4.4,1.6
		s2,2.5,2.2,4.4c0.8-1.8,2-3.2,3.4-4.3s2.9-1.6,4.4-1.8c0.1-0.1,0.2-0.1,0.4-0.1s0.3,0,0.5,0c2.1,0,3.9,0.8,5.5,2.4
		c1.6,1.6,2.4,4.1,2.4,7.3v30h-6.7V258c0-1-0.4-1.8-1.3-2.4s-1.8-0.9-2.9-0.9c-1.1,0-2.1,0.3-3,0.9c-0.9,0.6-1.4,1.6-1.4,3v29.4
		h-7.4V258c0-1-0.4-1.8-1.3-2.4s-1.8-0.9-2.9-0.9c-1.1,0-2.1,0.3-3,0.9c-0.9,0.6-1.4,1.6-1.4,3v29.4h-7.4V248.8z"/>
	<path d="M167.1,249.4c1.4-1.1,2.8-1.7,4.4-1.7c0.2,0,0.3,0,0.4,0s0.3,0,0.4,0.1c2.2,0.3,4.3,2,6.2,5.1s2.8,8.1,2.8,15.1
		c0,7.3-0.9,12.5-2.8,15.5c-1.8,3.1-3.9,4.8-6.1,5.1c-0.2,0.1-0.3,0.1-0.5,0.1s-0.3,0-0.5,0c-1.6,0-3.1-0.5-4.4-1.6
		c-1.4-1-2.3-2.3-2.8-3.7v20.2h-7.4v-54.7h7.4v4.9C164.7,251.9,165.7,250.5,167.1,249.4z M168.4,254.3c-2.1,0-3.5,1.4-4.1,3.9
		c-0.6,2.5-0.9,6-0.9,10.3c0,0.4,0,0.8,0,1.3c0,0.4,0,0.9,0.1,1.3c0,2.8,0.4,5.3,1.1,7.5s1.9,3.4,3.8,3.4c1.6,0,2.8-1,3.7-3
		c0.9-2,1.3-4.6,1.4-8c0-0.5,0-1.1,0-1.6c0-0.5-0.1-1.1-0.1-1.6c0-0.1,0-0.1,0-0.1c0,0,0-0.1,0-0.1c0-3.3-0.4-6.4-1.1-9.1
		C171.5,255.8,170.2,254.4,168.4,254.3L168.4,254.3z"/>
	<path d="M199.8,236.5c0-1.5,0.5-2.6,1.6-3.4c1.1-0.8,2.2-1.3,3.5-1.3c0.1,0,0.1,0,0.1,0c0,0,0.1,0,0.1,0c1.3,0,2.5,0.4,3.5,1.2
		c1,0.8,1.6,2,1.6,3.7c0,1.7-0.5,2.9-1.6,3.7c-1.1,0.8-2.3,1.2-3.6,1.2c-1.3,0.1-2.5-0.3-3.6-1.2
		C200.3,239.6,199.8,238.3,199.8,236.5L199.8,236.5z M201.6,248.8h8v39.3h-8V248.8z"/>
	<path d="M232.3,248.8h7.4v4.9c1.2-1.8,2.5-3.1,3.9-4.1c1.4-0.9,3.2-1.4,5.3-1.4v6.7c-3.7,0.1-6.1,0.8-7.4,2.4
		c-1.2,1.5-1.8,3.2-1.8,5v25.7h-7.4V248.8z"/>
	<path d="M282,287.3c-1.4,1.2-2.8,1.8-4.3,1.8c-0.1,0-0.2,0-0.3,0c-0.1,0-0.2,0-0.3,0c-2-0.2-3.8-1.7-5.5-4.4s-2.7-7.3-3-13.6
		c-0.1-0.5-0.1-1-0.1-1.5s0-0.9,0-1.4c0-7,0.9-12,2.7-15c1.8-3,3.8-4.7,5.9-4.9c0.2-0.1,0.3-0.1,0.4-0.1c0.1,0,0.3,0,0.4,0
		c1.5,0,2.9,0.5,4.3,1.6c1.4,1,2.3,2.4,2.9,4.1v-5h7.4v39.3h-7.4v-5.5C284.4,284.5,283.3,286.1,282,287.3z M280.9,255
		c-2.1,0.1-3.5,1.4-4.1,3.9c-0.6,2.5-0.9,6-0.9,10.3c0,0.4,0,0.8,0,1.3c0,0.4,0,0.9,0,1.3c0,2.8,0.4,5.3,0.9,7.5
		c0.5,2.3,1.9,3.4,4,3.4c0.2,0,0.4,0,0.6-0.1c0.2-0.1,0.4-0.2,0.6-0.4c0.9-0.6,1.8-1.9,2.6-3.9c0.8-2,1.2-4.5,1.2-7.5
		c0-0.2,0-0.4,0-0.6s0-0.4,0-0.6c0-0.2,0-0.3,0-0.5s0-0.4,0-0.6c0-3.4-0.3-6.5-0.9-9.3S283,255,280.9,255L280.9,255z"/>
</g>
<g>
	<path class="st0" d="M32.7,338.3v-34h12.2v3.9h-7.6V319H44v3.9h-6.7v11.6h7.6v3.9H32.7z"/>
	<path class="st0" d="M68.4,338.3v-14.8c-0.1-2.2-0.1-4.7-2.4-4.7c-2.7,0-2.7,2.8-2.7,4.7v14.7h-4.2v-22.8h4.2v2.7
		c1.2-1.9,2.3-3,4.7-3c3.9,0,4.6,3.1,4.6,6.3v16.8H68.4z"/>
	<path class="st0" d="M92.2,318.8v19.5H88v-19.5h-2.3v-3.3H88v-6.5h4.2v6.5h2.3v3.3H92.2z"/>
	<path class="st0" d="M111,327.8c0,2,0,7.3,2.9,7.3c2.2,0,2.6-2.8,2.6-4.4h3.9c-0.1,1.6-0.2,3.1-0.9,4.6c-1.1,2.2-3.2,3.5-5.7,3.5
		c-6.4,0-7-6.8-7-11.7c0-4.7,0.6-11.8,6.9-11.8c6.4,0,6.8,7.9,6.8,12.6H111z M116.3,324.7c-0.1-1.8-0.1-6-2.7-6
		c-2.5,0-2.5,4.2-2.7,6H116.3z"/>
	<path class="st0" d="M143.7,319.4c-0.3-0.1-0.5-0.1-0.8-0.1c-3.5,0-4.2,2.1-4.2,5.2v13.8h-4.2v-22.8h4.2v2.9
		c1.3-2.1,2.4-3.2,4.9-3.4V319.4z"/>
	<path class="st0" d="M161,318.5c0.9-1.9,1.9-3.3,4.2-3.3c5.4,0,5.5,8.3,5.5,12c0,3.9-0.1,11.5-5.6,11.5c-2.1,0-3.2-1.1-4.1-2.9
		v12.1h-4.2v-32.4h4.2V318.5z M166.3,325.4c0-1.8-0.1-6.4-2.8-6.4c-2.5,0-2.7,5-2.7,6.8v2.3c0,1.8,0.1,6.8,2.7,6.8
		c2.7,0,2.8-4.6,2.8-6.4V325.4z"/>
	<path class="st0" d="M193.9,319.4c-0.3-0.1-0.5-0.1-0.8-0.1c-3.5,0-4.2,2.1-4.2,5.2v13.8h-4.2v-22.8h4.2v2.9
		c1.3-2.1,2.4-3.2,4.9-3.4V319.4z"/>
	<path class="st0" d="M209,311.6c-1.6,0-2.9-1.3-2.9-2.9s1.3-2.9,2.9-2.9c1.5,0,2.8,1.3,2.8,2.9C211.8,310.2,210.5,311.6,209,311.6z
		 M207,338.3v-22.8h4.2v22.8H207z"/>
	<path class="st0" d="M235,319.9c-0.9-0.7-2-1.1-3.2-1.1c-1.4,0-2.7,1.1-2.7,2.5c0,3.7,7,4.1,7,10.6c0,4-2.5,6.7-6.5,6.7
		c-1.6,0-2.3-0.3-3.7-1.1v-4.1c1.1,0.8,2.1,1.4,3.5,1.4c1.8,0,2.9-1,2.9-2.9c0-4.1-7.1-4.6-7.1-10.8c0-3.6,2.4-6.2,6.1-6.2
		c1.4,0,2.6,0.3,3.8,1V319.9z"/>
	<path class="st0" d="M252.9,327.8c0,2,0,7.3,2.9,7.3c2.2,0,2.6-2.8,2.6-4.4h3.9c-0.1,1.6-0.2,3.1-0.9,4.6c-1.1,2.2-3.2,3.5-5.7,3.5
		c-6.4,0-7-6.8-7-11.7c0-4.7,0.6-11.8,6.9-11.8c6.4,0,6.8,7.9,6.8,12.6H252.9z M258.2,324.7c-0.1-1.8-0.1-6-2.7-6
		c-2.5,0-2.5,4.2-2.7,6H258.2z"/>
</g>
</svg>
